<?xml version="1.0" encoding="UTF-8" standalone="no"?>
<!-- Generator: Adobe Illustrator 19.0.0, SVG Export Plug-In . SVG Version: 6.00 Build 0)  -->

<svg
   xmlns:dc="http://purl.org/dc/elements/1.1/"
   xmlns:cc="http://creativecommons.org/ns#"
   xmlns:rdf="http://www.w3.org/1999/02/22-rdf-syntax-ns#"
   xmlns:svg="http://www.w3.org/2000/svg"
   xmlns="http://www.w3.org/2000/svg"
   xmlns:sodipodi="http://sodipodi.sourceforge.net/DTD/sodipodi-0.dtd"
   xmlns:inkscape="http://www.inkscape.org/namespaces/inkscape"
   version="1.1"
   id="Layer_1"
   x="0px"
   y="0px"
   viewBox="0 0 310.05 310.05"
   style="enable-background:new 0 0 310.05 310.05;"
   xml:space="preserve"
   sodipodi:docname="pinterest.svg"
   inkscape:version="0.92.3 (2405546, 2018-03-11)"><metadata
   id="metadata39"><rdf:RDF><cc:Work
       rdf:about=""><dc:format>image/svg+xml</dc:format><dc:type
         rdf:resource="http://purl.org/dc/dcmitype/StillImage" /></cc:Work></rdf:RDF></metadata><defs
   id="defs37" /><sodipodi:namedview
   pagecolor="#ffffff"
   bordercolor="#666666"
   borderopacity="1"
   objecttolerance="10"
   gridtolerance="10"
   guidetolerance="10"
   inkscape:pageopacity="0"
   inkscape:pageshadow="2"
   inkscape:window-width="640"
   inkscape:window-height="480"
   id="namedview35"
   showgrid="false"
   inkscape:zoom="0.76116758"
   inkscape:cx="155.02499"
   inkscape:cy="155.02499"
   inkscape:window-x="0"
   inkscape:window-y="24"
   inkscape:window-maximized="0"
   inkscape:current-layer="Layer_1" />
<g
   id="XMLID_798_"
   transform="translate(2.6275423,-2.6275422)"
   style="fill:#ececec">
	<path
   id="XMLID_799_"
   d="M 245.265,31.772 C 223.923,11.284 194.388,0 162.101,0 112.781,0 82.447,20.217 65.685,37.176 c -20.658,20.9 -32.504,48.651 -32.504,76.139 0,34.513 14.436,61.003 38.611,70.858 1.623,0.665 3.256,1 4.857,1 5.1,0 9.141,-3.337 10.541,-8.69 0.816,-3.071 2.707,-10.647 3.529,-13.936 1.76,-6.495 0.338,-9.619 -3.5,-14.142 -6.992,-8.273 -10.248,-18.056 -10.248,-30.788 0,-37.818 28.16,-78.011 80.352,-78.011 41.412,0 67.137,23.537 67.137,61.425 0,23.909 -5.15,46.051 -14.504,62.35 -6.5,11.325 -17.93,24.825 -35.477,24.825 -7.588,0 -14.404,-3.117 -18.705,-8.551 -4.063,-5.137 -5.402,-11.773 -3.768,-18.689 1.846,-7.814 4.363,-15.965 6.799,-23.845 4.443,-14.392 8.643,-27.985 8.643,-38.83 0,-18.55 -11.404,-31.014 -28.375,-31.014 -21.568,0 -38.465,21.906 -38.465,49.871 0,13.715 3.645,23.973 5.295,27.912 -2.717,11.512 -18.865,79.953 -21.928,92.859 -1.771,7.534 -12.44,67.039 5.219,71.784 19.841,5.331 37.576,-52.623 39.381,-59.172 1.463,-5.326 6.582,-25.465 9.719,-37.845 9.578,9.226 25,15.463 40.006,15.463 28.289,0 53.73,-12.73 71.637,-35.843 17.367,-22.418 26.932,-53.664 26.932,-87.978 0,-26.826 -11.52,-53.272 -31.604,-72.556 z"
   inkscape:connector-curvature="0"
   style="fill:#ececec" />
</g>
<g
   id="g4">
</g>
<g
   id="g6">
</g>
<g
   id="g8">
</g>
<g
   id="g10">
</g>
<g
   id="g12">
</g>
<g
   id="g14">
</g>
<g
   id="g16">
</g>
<g
   id="g18">
</g>
<g
   id="g20">
</g>
<g
   id="g22">
</g>
<g
   id="g24">
</g>
<g
   id="g26">
</g>
<g
   id="g28">
</g>
<g
   id="g30">
</g>
<g
   id="g32">
</g>
</svg>